<svg width="216" height="158" viewBox="0 0 216 158" fill="none" xmlns="http://www.w3.org/2000/svg">
<path d="M6.22727 73.0909V78.7273C11.2879 78.7273 14.8182 79.7879 16.8182 81.9091C18.8485 84.0303 19.8636 87.5758 19.8636 92.5455V107.091C19.8636 111.273 20.2576 114.894 21.0455 117.955C21.8636 121.015 23.1818 123.545 25 125.545C26.8182 127.545 29.2424 129.03 32.2727 130C35.303 130.97 39.0455 131.455 43.5 131.455V122.545C39.9848 122.545 37.2121 122 35.1818 120.909C33.1818 119.818 31.7576 118.121 30.9091 115.818C30.0909 113.545 29.6818 110.636 29.6818 107.091V88.9091C29.6818 86.5455 29.3636 84.3939 28.7273 82.4545C28.1212 80.5152 26.9848 78.8485 25.3182 77.4545C23.6515 76.0606 21.2727 74.9848 18.1818 74.2273C15.1212 73.4697 11.1364 73.0909 6.22727 73.0909ZM43.5 15.0909C39.0455 15.0909 35.303 15.5758 32.2727 16.5455C29.2424 17.5152 26.8182 19 25 21C23.1818 23 21.8636 25.5303 21.0455 28.5909C20.2576 31.6515 19.8636 35.2727 19.8636 39.4545V54C19.8636 58.9697 18.8485 62.5152 16.8182 64.6364C14.8182 66.7576 11.2879 67.8182 6.22727 67.8182V73.4545C11.1364 73.4545 15.1212 73.0758 18.1818 72.3182C21.2727 71.5606 23.6515 70.4849 25.3182 69.0909C26.9848 67.697 28.1212 66.0303 28.7273 64.0909C29.3636 62.1515 29.6818 60 29.6818 57.6364V39.4545C29.6818 35.9091 30.0909 33 30.9091 30.7273C31.7576 28.4545 33.1818 26.7727 35.1818 25.6818C37.2121 24.5606 39.9848 24 43.5 24V15.0909ZM6.22727 67.8182V78.7273H16.9545V67.8182H6.22727Z" fill="#15979F"/>
<g filter="url(#filter0_d_1_8)">
<path d="M61.8788 18.968H81.0148C85.6228 18.968 89.6974 19.8853 93.2388 21.72C96.8228 23.5547 99.5961 26.1147 101.559 29.4C103.564 32.6853 104.567 36.44 104.567 40.664C104.567 45.1013 103.585 49.0053 101.623 52.376C99.7028 55.7467 96.9508 58.3707 93.3668 60.248C89.8254 62.0827 85.7081 63 81.0148 63H61.8788V18.968ZM80.3748 51.48C83.5748 51.48 86.0068 50.4773 87.6708 48.472C89.3774 46.424 90.2308 43.7787 90.2308 40.536C90.2308 37.464 89.3988 35.032 87.7348 33.24C86.1134 31.4053 83.6601 30.488 80.3748 30.488H76.0228V51.48H80.3748ZM152.098 64.024C144.076 64.024 139.17 60.312 137.378 52.888L135.778 46.296H132.77V63H118.754V18.968H138.146C141.815 18.968 145.036 19.5227 147.81 20.632C150.626 21.6987 152.802 23.2133 154.338 25.176C155.874 27.1387 156.642 29.4 156.642 31.96C156.642 34.8187 155.938 37.2293 154.53 39.192C153.164 41.112 151.031 42.6907 148.13 43.928C148.428 45.5493 148.77 47.0213 149.154 48.344C149.666 49.9653 150.37 51.096 151.266 51.736C152.162 52.376 153.463 52.696 155.17 52.696C155.767 52.696 156.706 52.6107 157.986 52.44V62.872C155.98 63.64 154.018 64.024 152.098 64.024ZM135.202 37.336C138.359 37.336 140.578 36.9947 141.858 36.312C143.18 35.5867 143.842 34.3707 143.842 32.664C143.842 31.2133 143.308 30.168 142.242 29.528C141.175 28.8453 139.49 28.504 137.186 28.504H132.77V37.336H135.202Z" fill="#16C4CF"/>
</g>
<g filter="url(#filter1_d_1_8)">
<path d="M51.985 109.16C51.985 106.04 52.66 103.265 54.01 100.835C55.36 98.375 57.235 96.47 59.635 95.12C62.065 93.74 64.81 93.05 67.87 93.05C71.62 93.05 74.83 94.04 77.5 96.02C80.17 98 81.955 100.7 82.855 104.12H74.395C73.765 102.8 72.865 101.795 71.695 101.105C70.555 100.415 69.25 100.07 67.78 100.07C65.41 100.07 63.49 100.895 62.02 102.545C60.55 104.195 59.815 106.4 59.815 109.16C59.815 111.92 60.55 114.125 62.02 115.775C63.49 117.425 65.41 118.25 67.78 118.25C69.25 118.25 70.555 117.905 71.695 117.215C72.865 116.525 73.765 115.52 74.395 114.2H82.855C81.955 117.62 80.17 120.32 77.5 122.3C74.83 124.25 71.62 125.225 67.87 125.225C64.81 125.225 62.065 124.55 59.635 123.2C57.235 121.82 55.36 119.915 54.01 117.485C52.66 115.055 51.985 112.28 51.985 109.16ZM98.9973 125.36C96.5373 125.36 94.3173 124.835 92.3373 123.785C90.3873 122.735 88.8423 121.235 87.7023 119.285C86.5923 117.335 86.0373 115.055 86.0373 112.445C86.0373 109.865 86.6073 107.6 87.7473 105.65C88.8873 103.67 90.4473 102.155 92.4273 101.105C94.4073 100.055 96.6273 99.53 99.0873 99.53C101.547 99.53 103.767 100.055 105.747 101.105C107.727 102.155 109.287 103.67 110.427 105.65C111.567 107.6 112.137 109.865 112.137 112.445C112.137 115.025 111.552 117.305 110.382 119.285C109.242 121.235 107.667 122.735 105.657 123.785C103.677 124.835 101.457 125.36 98.9973 125.36ZM98.9973 118.7C100.467 118.7 101.712 118.16 102.732 117.08C103.782 116 104.307 114.455 104.307 112.445C104.307 110.435 103.797 108.89 102.777 107.81C101.787 106.73 100.557 106.19 99.0873 106.19C97.5873 106.19 96.3423 106.73 95.3523 107.81C94.3623 108.86 93.8673 110.405 93.8673 112.445C93.8673 114.455 94.3473 116 95.3073 117.08C96.2973 118.16 97.5273 118.7 98.9973 118.7ZM114.69 112.4C114.69 109.82 115.17 107.555 116.13 105.605C117.12 103.655 118.455 102.155 120.135 101.105C121.815 100.055 123.69 99.53 125.76 99.53C127.41 99.53 128.91 99.875 130.26 100.565C131.64 101.255 132.72 102.185 133.5 103.355V91.7H141.195V125H133.5V121.4C132.78 122.6 131.745 123.56 130.395 124.28C129.075 125 127.53 125.36 125.76 125.36C123.69 125.36 121.815 124.835 120.135 123.785C118.455 122.705 117.12 121.19 116.13 119.24C115.17 117.26 114.69 114.98 114.69 112.4ZM133.5 112.445C133.5 110.525 132.96 109.01 131.88 107.9C130.83 106.79 129.54 106.235 128.01 106.235C126.48 106.235 125.175 106.79 124.095 107.9C123.045 108.98 122.52 110.48 122.52 112.4C122.52 114.32 123.045 115.85 124.095 116.99C125.175 118.1 126.48 118.655 128.01 118.655C129.54 118.655 130.83 118.1 131.88 116.99C132.96 115.88 133.5 114.365 133.5 112.445ZM170.432 112.04C170.432 112.76 170.387 113.51 170.297 114.29H152.882C153.002 115.85 153.497 117.05 154.367 117.89C155.267 118.7 156.362 119.105 157.652 119.105C159.572 119.105 160.907 118.295 161.657 116.675H169.847C169.427 118.325 168.662 119.81 167.552 121.13C166.472 122.45 165.107 123.485 163.457 124.235C161.807 124.985 159.962 125.36 157.922 125.36C155.462 125.36 153.272 124.835 151.352 123.785C149.432 122.735 147.932 121.235 146.852 119.285C145.772 117.335 145.232 115.055 145.232 112.445C145.232 109.835 145.757 107.555 146.807 105.605C147.887 103.655 149.387 102.155 151.307 101.105C153.227 100.055 155.432 99.53 157.922 99.53C160.352 99.53 162.512 100.04 164.402 101.06C166.292 102.08 167.762 103.535 168.812 105.425C169.892 107.315 170.432 109.52 170.432 112.04ZM162.557 110.015C162.557 108.695 162.107 107.645 161.207 106.865C160.307 106.085 159.182 105.695 157.832 105.695C156.542 105.695 155.447 106.07 154.547 106.82C153.677 107.57 153.137 108.635 152.927 110.015H162.557Z" fill="#B503D2"/>
</g>
<path d="M209.773 73.0909V78.7273C204.712 78.7273 201.182 79.7879 199.182 81.9091C197.152 84.0303 196.136 87.5758 196.136 92.5455V107.091C196.136 111.273 195.742 114.894 194.955 117.955C194.136 121.015 192.818 123.545 191 125.545C189.182 127.545 186.758 129.03 183.727 130C180.697 130.97 176.955 131.455 172.5 131.455V122.545C176.015 122.545 178.788 122 180.818 120.909C182.818 119.818 184.242 118.121 185.091 115.818C185.909 113.545 186.318 110.636 186.318 107.091V88.9091C186.318 86.5455 186.636 84.3939 187.273 82.4545C187.879 80.5152 189.015 78.8485 190.682 77.4545C192.348 76.0606 194.727 74.9848 197.818 74.2273C200.879 73.4697 204.864 73.0909 209.773 73.0909ZM172.5 15.0909C176.955 15.0909 180.697 15.5758 183.727 16.5455C186.758 17.5152 189.182 19 191 21C192.818 23 194.136 25.5303 194.955 28.5909C195.742 31.6515 196.136 35.2727 196.136 39.4545V54C196.136 58.9697 197.152 62.5152 199.182 64.6364C201.182 66.7576 204.712 67.8182 209.773 67.8182V73.4545C204.864 73.4545 200.879 73.0758 197.818 72.3182C194.727 71.5606 192.348 70.4849 190.682 69.0909C189.015 67.697 187.879 66.0303 187.273 64.0909C186.636 62.1515 186.318 60 186.318 57.6364V39.4545C186.318 35.9091 185.909 33 185.091 30.7273C184.242 28.4545 182.818 26.7727 180.818 25.6818C178.788 24.5606 176.015 24 172.5 24V15.0909ZM209.773 67.8182V78.7273H199.045V67.8182H209.773Z" fill="#15979F"/>
<defs>
<filter id="filter0_d_1_8" x="52.8787" y="15.968" width="110.107" height="59.056" filterUnits="userSpaceOnUse" color-interpolation-filters="sRGB">
<feFlood flood-opacity="0" result="BackgroundImageFix"/>
<feColorMatrix in="SourceAlpha" type="matrix" values="0 0 0 0 0 0 0 0 0 0 0 0 0 0 0 0 0 0 127 0" result="hardAlpha"/>
<feOffset dx="-2" dy="4"/>
<feGaussianBlur stdDeviation="3.5"/>
<feComposite in2="hardAlpha" operator="out"/>
<feColorMatrix type="matrix" values="0 0 0 0 0.747708 0 0 0 0 0.925 0 0 0 0 0.861175 0 0 0 0.25 0"/>
<feBlend mode="normal" in2="BackgroundImageFix" result="effect1_dropShadow_1_8"/>
<feBlend mode="normal" in="SourceGraphic" in2="effect1_dropShadow_1_8" result="shape"/>
</filter>
<filter id="filter1_d_1_8" x="21.985" y="65.7" width="174.447" height="89.66" filterUnits="userSpaceOnUse" color-interpolation-filters="sRGB">
<feFlood flood-opacity="0" result="BackgroundImageFix"/>
<feColorMatrix in="SourceAlpha" type="matrix" values="0 0 0 0 0 0 0 0 0 0 0 0 0 0 0 0 0 0 127 0" result="hardAlpha"/>
<feOffset dx="-2" dy="2"/>
<feGaussianBlur stdDeviation="14"/>
<feComposite in2="hardAlpha" operator="out"/>
<feColorMatrix type="matrix" values="0 0 0 0 0.0376216 0 0 0 0 0.58587 0 0 0 0 0.820833 0 0 0 0.72 0"/>
<feBlend mode="normal" in2="BackgroundImageFix" result="effect1_dropShadow_1_8"/>
<feBlend mode="normal" in="SourceGraphic" in2="effect1_dropShadow_1_8" result="shape"/>
</filter>
</defs>
</svg>
