<svg width="216" height="158" viewBox="0 0 216 158" fill="none" xmlns="http://www.w3.org/2000/svg">
<path d="M6.22727 73.0909V78.7273C11.2879 78.7273 14.8182 79.7879 16.8182 81.9091C18.8485 84.0303 19.8636 87.5758 19.8636 92.5455V107.091C19.8636 111.273 20.2576 114.894 21.0455 117.955C21.8636 121.015 23.1818 123.545 25 125.545C26.8182 127.545 29.2424 129.03 32.2727 130C35.303 130.97 39.0455 131.455 43.5 131.455V122.545C39.9848 122.545 37.2121 122 35.1818 120.909C33.1818 119.818 31.7576 118.121 30.9091 115.818C30.0909 113.545 29.6818 110.636 29.6818 107.091V88.9091C29.6818 86.5455 29.3636 84.3939 28.7273 82.4545C28.1212 80.5152 26.9848 78.8485 25.3182 77.4545C23.6515 76.0606 21.2727 74.9848 18.1818 74.2273C15.1212 73.4697 11.1364 73.0909 6.22727 73.0909ZM43.5 15.0909C39.0455 15.0909 35.303 15.5758 32.2727 16.5455C29.2424 17.5152 26.8182 19 25 21C23.1818 23 21.8636 25.5303 21.0455 28.5909C20.2576 31.6515 19.8636 35.2727 19.8636 39.4545V54C19.8636 58.9697 18.8485 62.5152 16.8182 64.6364C14.8182 66.7576 11.2879 67.8182 6.22727 67.8182V73.4545C11.1364 73.4545 15.1212 73.0758 18.1818 72.3182C21.2727 71.5606 23.6515 70.4849 25.3182 69.0909C26.9848 67.697 28.1212 66.0303 28.7273 64.0909C29.3636 62.1515 29.6818 60 29.6818 57.6364V39.4545C29.6818 35.9091 30.0909 33 30.9091 30.7273C31.7576 28.4545 33.1818 26.7727 35.1818 25.6818C37.2121 24.5606 39.9848 24 43.5 24V15.0909ZM6.22727 67.8182V78.7273H16.9545V67.8182H6.22727Z" fill="#15979F"/>
<g filter="url(#filter0_d_1_8)">
<path d="M71.3 30.072C76.036 30.072 80.1747 31.0107 83.716 32.888C87.2573 34.7653 89.988 37.4107 91.908 40.824C93.8707 44.1947 94.852 48.0987 94.852 52.536C94.852 56.9307 93.8707 60.8347 91.908 64.248C89.988 67.6613 87.236 70.3067 83.652 72.184C80.1107 74.0613 75.9933 75 71.3 75H54.468V30.072H71.3ZM70.596 65.528C74.7347 65.528 77.956 64.3973 80.26 62.136C82.564 59.8747 83.716 56.6747 83.716 52.536C83.716 48.3973 82.564 45.176 80.26 42.872C77.956 40.568 74.7347 39.416 70.596 39.416H65.412V65.528H70.596ZM123.88 75L114.536 58.04H111.912V75H100.968V30.072H119.336C122.877 30.072 125.885 30.6907 128.36 31.928C130.877 33.1653 132.755 34.872 133.992 37.048C135.229 39.1813 135.848 41.5707 135.848 44.216C135.848 47.2027 134.995 49.8693 133.288 52.216C131.624 54.5627 129.149 56.2267 125.864 57.208L136.232 75H123.88ZM111.912 50.296H118.696C120.701 50.296 122.195 49.8053 123.176 48.824C124.2 47.8427 124.712 46.456 124.712 44.664C124.712 42.9573 124.2 41.6133 123.176 40.632C122.195 39.6507 120.701 39.16 118.696 39.16H111.912V50.296Z" fill="#124D51"/>
</g>
<g filter="url(#filter1_d_1_8)">
<path d="M51.985 106.16C51.985 103.04 52.66 100.265 54.01 97.835C55.36 95.375 57.235 93.47 59.635 92.12C62.065 90.74 64.81 90.05 67.87 90.05C71.62 90.05 74.83 91.04 77.5 93.02C80.17 95 81.955 97.7 82.855 101.12H74.395C73.765 99.8 72.865 98.795 71.695 98.105C70.555 97.415 69.25 97.07 67.78 97.07C65.41 97.07 63.49 97.895 62.02 99.545C60.55 101.195 59.815 103.4 59.815 106.16C59.815 108.92 60.55 111.125 62.02 112.775C63.49 114.425 65.41 115.25 67.78 115.25C69.25 115.25 70.555 114.905 71.695 114.215C72.865 113.525 73.765 112.52 74.395 111.2H82.855C81.955 114.62 80.17 117.32 77.5 119.3C74.83 121.25 71.62 122.225 67.87 122.225C64.81 122.225 62.065 121.55 59.635 120.2C57.235 118.82 55.36 116.915 54.01 114.485C52.66 112.055 51.985 109.28 51.985 106.16ZM98.9973 122.36C96.5373 122.36 94.3173 121.835 92.3373 120.785C90.3873 119.735 88.8423 118.235 87.7023 116.285C86.5923 114.335 86.0373 112.055 86.0373 109.445C86.0373 106.865 86.6073 104.6 87.7473 102.65C88.8873 100.67 90.4473 99.155 92.4273 98.105C94.4073 97.055 96.6273 96.53 99.0873 96.53C101.547 96.53 103.767 97.055 105.747 98.105C107.727 99.155 109.287 100.67 110.427 102.65C111.567 104.6 112.137 106.865 112.137 109.445C112.137 112.025 111.552 114.305 110.382 116.285C109.242 118.235 107.667 119.735 105.657 120.785C103.677 121.835 101.457 122.36 98.9973 122.36ZM98.9973 115.7C100.467 115.7 101.712 115.16 102.732 114.08C103.782 113 104.307 111.455 104.307 109.445C104.307 107.435 103.797 105.89 102.777 104.81C101.787 103.73 100.557 103.19 99.0873 103.19C97.5873 103.19 96.3423 103.73 95.3523 104.81C94.3623 105.86 93.8673 107.405 93.8673 109.445C93.8673 111.455 94.3473 113 95.3073 114.08C96.2973 115.16 97.5273 115.7 98.9973 115.7ZM114.69 109.4C114.69 106.82 115.17 104.555 116.13 102.605C117.12 100.655 118.455 99.155 120.135 98.105C121.815 97.055 123.69 96.53 125.76 96.53C127.41 96.53 128.91 96.875 130.26 97.565C131.64 98.255 132.72 99.185 133.5 100.355V88.7H141.195V122H133.5V118.4C132.78 119.6 131.745 120.56 130.395 121.28C129.075 122 127.53 122.36 125.76 122.36C123.69 122.36 121.815 121.835 120.135 120.785C118.455 119.705 117.12 118.19 116.13 116.24C115.17 114.26 114.69 111.98 114.69 109.4ZM133.5 109.445C133.5 107.525 132.96 106.01 131.88 104.9C130.83 103.79 129.54 103.235 128.01 103.235C126.48 103.235 125.175 103.79 124.095 104.9C123.045 105.98 122.52 107.48 122.52 109.4C122.52 111.32 123.045 112.85 124.095 113.99C125.175 115.1 126.48 115.655 128.01 115.655C129.54 115.655 130.83 115.1 131.88 113.99C132.96 112.88 133.5 111.365 133.5 109.445ZM170.432 109.04C170.432 109.76 170.387 110.51 170.297 111.29H152.882C153.002 112.85 153.497 114.05 154.367 114.89C155.267 115.7 156.362 116.105 157.652 116.105C159.572 116.105 160.907 115.295 161.657 113.675H169.847C169.427 115.325 168.662 116.81 167.552 118.13C166.472 119.45 165.107 120.485 163.457 121.235C161.807 121.985 159.962 122.36 157.922 122.36C155.462 122.36 153.272 121.835 151.352 120.785C149.432 119.735 147.932 118.235 146.852 116.285C145.772 114.335 145.232 112.055 145.232 109.445C145.232 106.835 145.757 104.555 146.807 102.605C147.887 100.655 149.387 99.155 151.307 98.105C153.227 97.055 155.432 96.53 157.922 96.53C160.352 96.53 162.512 97.04 164.402 98.06C166.292 99.08 167.762 100.535 168.812 102.425C169.892 104.315 170.432 106.52 170.432 109.04ZM162.557 107.015C162.557 105.695 162.107 104.645 161.207 103.865C160.307 103.085 159.182 102.695 157.832 102.695C156.542 102.695 155.447 103.07 154.547 103.82C153.677 104.57 153.137 105.635 152.927 107.015H162.557Z" fill="#151A1B"/>
</g>
<path d="M209.773 73.0909V78.7273C204.712 78.7273 201.182 79.7879 199.182 81.9091C197.152 84.0303 196.136 87.5758 196.136 92.5455V107.091C196.136 111.273 195.742 114.894 194.955 117.955C194.136 121.015 192.818 123.545 191 125.545C189.182 127.545 186.758 129.03 183.727 130C180.697 130.97 176.955 131.455 172.5 131.455V122.545C176.015 122.545 178.788 122 180.818 120.909C182.818 119.818 184.242 118.121 185.091 115.818C185.909 113.545 186.318 110.636 186.318 107.091V88.9091C186.318 86.5455 186.636 84.3939 187.273 82.4545C187.879 80.5152 189.015 78.8485 190.682 77.4545C192.348 76.0606 194.727 74.9848 197.818 74.2273C200.879 73.4697 204.864 73.0909 209.773 73.0909ZM172.5 15.0909C176.955 15.0909 180.697 15.5758 183.727 16.5455C186.758 17.5152 189.182 19 191 21C192.818 23 194.136 25.5303 194.955 28.5909C195.742 31.6515 196.136 35.2727 196.136 39.4545V54C196.136 58.9697 197.152 62.5152 199.182 64.6364C201.182 66.7576 204.712 67.8182 209.773 67.8182V73.4545C204.864 73.4545 200.879 73.0758 197.818 72.3182C194.727 71.5606 192.348 70.4849 190.682 69.0909C189.015 67.697 187.879 66.0303 187.273 64.0909C186.636 62.1515 186.318 60 186.318 57.6364V39.4545C186.318 35.9091 185.909 33 185.091 30.7273C184.242 28.4545 182.818 26.7727 180.818 25.6818C178.788 24.5606 176.015 24 172.5 24V15.0909ZM209.773 67.8182V78.7273H199.045V67.8182H209.773Z" fill="#15979F"/>
<defs>
<filter id="filter0_d_1_8" x="45.468" y="27.072" width="95.764" height="58.928" filterUnits="userSpaceOnUse" color-interpolation-filters="sRGB">
<feFlood flood-opacity="0" result="BackgroundImageFix"/>
<feColorMatrix in="SourceAlpha" type="matrix" values="0 0 0 0 0 0 0 0 0 0 0 0 0 0 0 0 0 0 127 0" result="hardAlpha"/>
<feOffset dx="-2" dy="4"/>
<feGaussianBlur stdDeviation="3.5"/>
<feComposite in2="hardAlpha" operator="out"/>
<feColorMatrix type="matrix" values="0 0 0 0 0.747708 0 0 0 0 0.925 0 0 0 0 0.861175 0 0 0 0.25 0"/>
<feBlend mode="normal" in2="BackgroundImageFix" result="effect1_dropShadow_1_8"/>
<feBlend mode="normal" in="SourceGraphic" in2="effect1_dropShadow_1_8" result="shape"/>
</filter>
<filter id="filter1_d_1_8" x="42.985" y="83.7" width="132.447" height="47.66" filterUnits="userSpaceOnUse" color-interpolation-filters="sRGB">
<feFlood flood-opacity="0" result="BackgroundImageFix"/>
<feColorMatrix in="SourceAlpha" type="matrix" values="0 0 0 0 0 0 0 0 0 0 0 0 0 0 0 0 0 0 127 0" result="hardAlpha"/>
<feOffset dx="-2" dy="2"/>
<feGaussianBlur stdDeviation="3.5"/>
<feComposite in2="hardAlpha" operator="out"/>
<feColorMatrix type="matrix" values="0 0 0 0 0.539583 0 0 0 0 0.925 0 0 0 0 0.78625 0 0 0 0.25 0"/>
<feBlend mode="normal" in2="BackgroundImageFix" result="effect1_dropShadow_1_8"/>
<feBlend mode="normal" in="SourceGraphic" in2="effect1_dropShadow_1_8" result="shape"/>
</filter>
</defs>
</svg>
