<svg width="216" height="167" viewBox="0 0 216 167" fill="none" xmlns="http://www.w3.org/2000/svg">
<path d="M12.7273 80.0909V85.7273C17.7879 85.7273 21.3182 86.7879 23.3182 88.9091C25.3485 91.0303 26.3636 94.5758 26.3636 99.5455V114.091C26.3636 118.273 26.7576 121.894 27.5455 124.955C28.3636 128.015 29.6818 130.545 31.5 132.545C33.3182 134.545 35.7424 136.03 38.7727 137C41.803 137.97 45.5455 138.455 50 138.455V129.545C46.4848 129.545 43.7121 129 41.6818 127.909C39.6818 126.818 38.2576 125.121 37.4091 122.818C36.5909 120.545 36.1818 117.636 36.1818 114.091V95.9091C36.1818 93.5455 35.8636 91.3939 35.2273 89.4545C34.6212 87.5152 33.4848 85.8485 31.8182 84.4545C30.1515 83.0606 27.7727 81.9848 24.6818 81.2273C21.6212 80.4697 17.6364 80.0909 12.7273 80.0909ZM50 22.0909C45.5455 22.0909 41.803 22.5758 38.7727 23.5455C35.7424 24.5152 33.3182 26 31.5 28C29.6818 30 28.3636 32.5303 27.5455 35.5909C26.7576 38.6515 26.3636 42.2727 26.3636 46.4545V61C26.3636 65.9697 25.3485 69.5152 23.3182 71.6364C21.3182 73.7576 17.7879 74.8182 12.7273 74.8182V80.4545C17.6364 80.4545 21.6212 80.0758 24.6818 79.3182C27.7727 78.5606 30.1515 77.4849 31.8182 76.0909C33.4848 74.697 34.6212 73.0303 35.2273 71.0909C35.8636 69.1515 36.1818 67 36.1818 64.6364V46.4545C36.1818 42.9091 36.5909 40 37.4091 37.7273C38.2576 35.4545 39.6818 33.7727 41.6818 32.6818C43.7121 31.5606 46.4848 31 50 31V22.0909ZM12.7273 74.8182V85.7273H23.4545V74.8182H12.7273Z" fill="#15979F"/>
<g filter="url(#filter0_d_1_8)">
<path d="M55.8788 32.468H75.0148C79.6228 32.468 83.6974 33.3853 87.2388 35.22C90.8228 37.0547 93.5961 39.6147 95.5588 42.9C97.5641 46.1853 98.5668 49.94 98.5668 54.164C98.5668 58.6013 97.5854 62.5053 95.6228 65.876C93.7028 69.2467 90.9508 71.8707 87.3668 73.748C83.8254 75.5827 79.7081 76.5 75.0148 76.5H55.8788V32.468ZM74.3748 64.98C77.5748 64.98 80.0068 63.9773 81.6708 61.972C83.3774 59.924 84.2308 57.2787 84.2308 54.036C84.2308 50.964 83.3988 48.532 81.7348 46.74C80.1134 44.9053 77.6601 43.988 74.3748 43.988H70.0228V64.98H74.3748ZM146.098 77.524C138.076 77.524 133.17 73.812 131.378 66.388L129.778 59.796H126.77V76.5H112.754V32.468H132.146C135.815 32.468 139.036 33.0227 141.81 34.132C144.626 35.1987 146.802 36.7133 148.338 38.676C149.874 40.6387 150.642 42.9 150.642 45.46C150.642 48.3187 149.938 50.7293 148.53 52.692C147.164 54.612 145.031 56.1907 142.13 57.428C142.428 59.0493 142.77 60.5213 143.154 61.844C143.666 63.4653 144.37 64.596 145.266 65.236C146.162 65.876 147.463 66.196 149.17 66.196C149.767 66.196 150.706 66.1107 151.986 65.94V76.372C149.98 77.14 148.018 77.524 146.098 77.524ZM129.202 50.836C132.359 50.836 134.578 50.4947 135.858 49.812C137.18 49.0867 137.842 47.8707 137.842 46.164C137.842 44.7133 137.308 43.668 136.242 43.028C135.175 42.3453 133.49 42.004 131.186 42.004H126.77V50.836H129.202Z" fill="#16C4CF"/>
</g>
<g filter="url(#filter1_d_1_8)">
<path d="M46.584 104.604C46.584 101.276 47.304 98.316 48.744 95.724C50.184 93.1 52.184 91.068 54.744 89.628C57.336 88.156 60.264 87.42 63.528 87.42C67.528 87.42 70.952 88.476 73.8 90.588C76.648 92.7 78.552 95.58 79.512 99.228H70.488C69.816 97.82 68.856 96.748 67.608 96.012C66.392 95.276 65 94.908 63.432 94.908C60.904 94.908 58.856 95.788 57.288 97.548C55.72 99.308 54.936 101.66 54.936 104.604C54.936 107.548 55.72 109.9 57.288 111.66C58.856 113.42 60.904 114.3 63.432 114.3C65 114.3 66.392 113.932 67.608 113.196C68.856 112.46 69.816 111.388 70.488 109.98H79.512C78.552 113.628 76.648 116.508 73.8 118.62C70.952 120.7 67.528 121.74 63.528 121.74C60.264 121.74 57.336 121.02 54.744 119.58C52.184 118.108 50.184 116.076 48.744 113.484C47.304 110.892 46.584 107.932 46.584 104.604ZM96.7305 121.884C94.1065 121.884 91.7385 121.324 89.6265 120.204C87.5465 119.084 85.8985 117.484 84.6825 115.404C83.4985 113.324 82.9065 110.892 82.9065 108.108C82.9065 105.356 83.5145 102.94 84.7305 100.86C85.9465 98.748 87.6105 97.132 89.7225 96.012C91.8345 94.892 94.2025 94.332 96.8265 94.332C99.4505 94.332 101.819 94.892 103.931 96.012C106.043 97.132 107.707 98.748 108.923 100.86C110.139 102.94 110.747 105.356 110.747 108.108C110.747 110.86 110.123 113.292 108.875 115.404C107.659 117.484 105.979 119.084 103.835 120.204C101.723 121.324 99.3545 121.884 96.7305 121.884ZM96.7305 114.78C98.2985 114.78 99.6265 114.204 100.715 113.052C101.835 111.9 102.395 110.252 102.395 108.108C102.395 105.964 101.851 104.316 100.763 103.164C99.7065 102.012 98.3945 101.436 96.8265 101.436C95.2265 101.436 93.8985 102.012 92.8425 103.164C91.7865 104.284 91.2585 105.932 91.2585 108.108C91.2585 110.252 91.7705 111.9 92.7945 113.052C93.8505 114.204 95.1625 114.78 96.7305 114.78ZM113.469 108.06C113.469 105.308 113.981 102.892 115.005 100.812C116.061 98.732 117.485 97.132 119.277 96.012C121.069 94.892 123.069 94.332 125.277 94.332C127.037 94.332 128.637 94.7 130.077 95.436C131.549 96.172 132.701 97.164 133.533 98.412V85.98H141.741V121.5H133.533V117.66C132.765 118.94 131.661 119.964 130.221 120.732C128.813 121.5 127.165 121.884 125.277 121.884C123.069 121.884 121.069 121.324 119.277 120.204C117.485 119.052 116.061 117.436 115.005 115.356C113.981 113.244 113.469 110.812 113.469 108.06ZM133.533 108.108C133.533 106.06 132.957 104.444 131.805 103.26C130.685 102.076 129.309 101.484 127.677 101.484C126.045 101.484 124.653 102.076 123.501 103.26C122.381 104.412 121.821 106.012 121.821 108.06C121.821 110.108 122.381 111.74 123.501 112.956C124.653 114.14 126.045 114.732 127.677 114.732C129.309 114.732 130.685 114.14 131.805 112.956C132.957 111.772 133.533 110.156 133.533 108.108ZM172.927 107.676C172.927 108.444 172.879 109.244 172.783 110.076H154.207C154.335 111.74 154.863 113.02 155.791 113.916C156.751 114.78 157.919 115.212 159.295 115.212C161.343 115.212 162.767 114.348 163.567 112.62H172.303C171.855 114.38 171.039 115.964 169.855 117.372C168.703 118.78 167.247 119.884 165.487 120.684C163.727 121.484 161.759 121.884 159.583 121.884C156.959 121.884 154.623 121.324 152.575 120.204C150.527 119.084 148.927 117.484 147.775 115.404C146.623 113.324 146.047 110.892 146.047 108.108C146.047 105.324 146.607 102.892 147.727 100.812C148.879 98.732 150.479 97.132 152.527 96.012C154.575 94.892 156.927 94.332 159.583 94.332C162.175 94.332 164.479 94.876 166.495 95.964C168.511 97.052 170.079 98.604 171.199 100.62C172.351 102.636 172.927 104.988 172.927 107.676ZM164.527 105.516C164.527 104.108 164.047 102.988 163.087 102.156C162.127 101.324 160.927 100.908 159.487 100.908C158.111 100.908 156.943 101.308 155.983 102.108C155.055 102.908 154.479 104.044 154.255 105.516H164.527Z" fill="#203A58"/>
</g>
<path d="M202.273 80.0909V85.7273C197.212 85.7273 193.682 86.7879 191.682 88.9091C189.652 91.0303 188.636 94.5758 188.636 99.5455V114.091C188.636 118.273 188.242 121.894 187.455 124.955C186.636 128.015 185.318 130.545 183.5 132.545C181.682 134.545 179.258 136.03 176.227 137C173.197 137.97 169.455 138.455 165 138.455V129.545C168.515 129.545 171.288 129 173.318 127.909C175.318 126.818 176.742 125.121 177.591 122.818C178.409 120.545 178.818 117.636 178.818 114.091V95.9091C178.818 93.5455 179.136 91.3939 179.773 89.4545C180.379 87.5152 181.515 85.8485 183.182 84.4545C184.848 83.0606 187.227 81.9848 190.318 81.2273C193.379 80.4697 197.364 80.0909 202.273 80.0909ZM165 22.0909C169.455 22.0909 173.197 22.5758 176.227 23.5455C179.258 24.5152 181.682 26 183.5 28C185.318 30 186.636 32.5303 187.455 35.5909C188.242 38.6515 188.636 42.2727 188.636 46.4545V61C188.636 65.9697 189.652 69.5152 191.682 71.6364C193.682 73.7576 197.212 74.8182 202.273 74.8182V80.4545C197.364 80.4545 193.379 80.0758 190.318 79.3182C187.227 78.5606 184.848 77.4849 183.182 76.0909C181.515 74.697 180.379 73.0303 179.773 71.0909C179.136 69.1515 178.818 67 178.818 64.6364V46.4545C178.818 42.9091 178.409 40 177.591 37.7273C176.742 35.4545 175.318 33.7727 173.318 32.6818C171.288 31.5606 168.515 31 165 31V22.0909ZM202.273 74.8182V85.7273H191.545V74.8182H202.273Z" fill="#15979F"/>
<defs>
<filter id="filter0_d_1_8" x="50.8787" y="32.468" width="102.107" height="52.056" filterUnits="userSpaceOnUse" color-interpolation-filters="sRGB">
<feFlood flood-opacity="0" result="BackgroundImageFix"/>
<feColorMatrix in="SourceAlpha" type="matrix" values="0 0 0 0 0 0 0 0 0 0 0 0 0 0 0 0 0 0 127 0" result="hardAlpha"/>
<feOffset dx="-2" dy="4"/>
<feGaussianBlur stdDeviation="1.5"/>
<feComposite in2="hardAlpha" operator="out"/>
<feColorMatrix type="matrix" values="0 0 0 0 0.747708 0 0 0 0 0.925 0 0 0 0 0.861175 0 0 0 0.25 0"/>
<feBlend mode="normal" in2="BackgroundImageFix" result="effect1_dropShadow_1_8"/>
<feBlend mode="normal" in="SourceGraphic" in2="effect1_dropShadow_1_8" result="shape"/>
</filter>
<filter id="filter1_d_1_8" x="42.584" y="85.98" width="130.343" height="39.904" filterUnits="userSpaceOnUse" color-interpolation-filters="sRGB">
<feFlood flood-opacity="0" result="BackgroundImageFix"/>
<feColorMatrix in="SourceAlpha" type="matrix" values="0 0 0 0 0 0 0 0 0 0 0 0 0 0 0 0 0 0 127 0" result="hardAlpha"/>
<feOffset dx="-2" dy="2"/>
<feGaussianBlur stdDeviation="1"/>
<feComposite in2="hardAlpha" operator="out"/>
<feColorMatrix type="matrix" values="0 0 0 0 1 0 0 0 0 1 0 0 0 0 1 0 0 0 0.72 0"/>
<feBlend mode="normal" in2="BackgroundImageFix" result="effect1_dropShadow_1_8"/>
<feBlend mode="normal" in="SourceGraphic" in2="effect1_dropShadow_1_8" result="shape"/>
</filter>
</defs>
</svg>
