<svg width="216" height="216" viewBox="0 0 216 216" fill="none" xmlns="http://www.w3.org/2000/svg">
<path d="M6.22727 104.091V109.727C11.2879 109.727 14.8182 110.788 16.8182 112.909C18.8485 115.03 19.8636 118.576 19.8636 123.545V138.091C19.8636 142.273 20.2576 145.894 21.0455 148.955C21.8636 152.015 23.1818 154.545 25 156.545C26.8182 158.545 29.2424 160.03 32.2727 161C35.303 161.97 39.0455 162.455 43.5 162.455V153.545C39.9848 153.545 37.2121 153 35.1818 151.909C33.1818 150.818 31.7576 149.121 30.9091 146.818C30.0909 144.545 29.6818 141.636 29.6818 138.091V119.909C29.6818 117.545 29.3636 115.394 28.7273 113.455C28.1212 111.515 26.9848 109.848 25.3182 108.455C23.6515 107.061 21.2727 105.985 18.1818 105.227C15.1212 104.47 11.1364 104.091 6.22727 104.091ZM43.5 46.0909C39.0455 46.0909 35.303 46.5758 32.2727 47.5455C29.2424 48.5152 26.8182 50 25 52C23.1818 54 21.8636 56.5303 21.0455 59.5909C20.2576 62.6515 19.8636 66.2727 19.8636 70.4545V85C19.8636 89.9697 18.8485 93.5152 16.8182 95.6364C14.8182 97.7576 11.2879 98.8182 6.22727 98.8182V104.455C11.1364 104.455 15.1212 104.076 18.1818 103.318C21.2727 102.561 23.6515 101.485 25.3182 100.091C26.9848 98.697 28.1212 97.0303 28.7273 95.0909C29.3636 93.1515 29.6818 91 29.6818 88.6364V70.4545C29.6818 66.9091 30.0909 64 30.9091 61.7273C31.7576 59.4545 33.1818 57.7727 35.1818 56.6818C37.2121 55.5606 39.9848 55 43.5 55V46.0909ZM6.22727 98.8182V109.727H16.9545V98.8182H6.22727Z" fill="#15979F"/>
<g filter="url(#filter0_d_1_8)">
<path d="M71.3 61.072C76.036 61.072 80.1747 62.0107 83.716 63.888C87.2573 65.7653 89.988 68.4107 91.908 71.824C93.8707 75.1947 94.852 79.0987 94.852 83.536C94.852 87.9307 93.8707 91.8347 91.908 95.248C89.988 98.6613 87.236 101.307 83.652 103.184C80.1107 105.061 75.9933 106 71.3 106H54.468V61.072H71.3ZM70.596 96.528C74.7347 96.528 77.956 95.3973 80.26 93.136C82.564 90.8747 83.716 87.6747 83.716 83.536C83.716 79.3973 82.564 76.176 80.26 73.872C77.956 71.568 74.7347 70.416 70.596 70.416H65.412V96.528H70.596ZM123.88 106L114.536 89.04H111.912V106H100.968V61.072H119.336C122.877 61.072 125.885 61.6907 128.36 62.928C130.877 64.1653 132.755 65.872 133.992 68.048C135.229 70.1813 135.848 72.5707 135.848 75.216C135.848 78.2027 134.995 80.8693 133.288 83.216C131.624 85.5627 129.149 87.2267 125.864 88.208L136.232 106H123.88ZM111.912 81.296H118.696C120.701 81.296 122.195 80.8053 123.176 79.824C124.2 78.8427 124.712 77.456 124.712 75.664C124.712 73.9573 124.2 72.6133 123.176 71.632C122.195 70.6507 120.701 70.16 118.696 70.16H111.912V81.296Z" fill="#124D51"/>
</g>
<g filter="url(#filter1_d_1_8)">
<path d="M51.985 137.16C51.985 134.04 52.66 131.265 54.01 128.835C55.36 126.375 57.235 124.47 59.635 123.12C62.065 121.74 64.81 121.05 67.87 121.05C71.62 121.05 74.83 122.04 77.5 124.02C80.17 126 81.955 128.7 82.855 132.12H74.395C73.765 130.8 72.865 129.795 71.695 129.105C70.555 128.415 69.25 128.07 67.78 128.07C65.41 128.07 63.49 128.895 62.02 130.545C60.55 132.195 59.815 134.4 59.815 137.16C59.815 139.92 60.55 142.125 62.02 143.775C63.49 145.425 65.41 146.25 67.78 146.25C69.25 146.25 70.555 145.905 71.695 145.215C72.865 144.525 73.765 143.52 74.395 142.2H82.855C81.955 145.62 80.17 148.32 77.5 150.3C74.83 152.25 71.62 153.225 67.87 153.225C64.81 153.225 62.065 152.55 59.635 151.2C57.235 149.82 55.36 147.915 54.01 145.485C52.66 143.055 51.985 140.28 51.985 137.16ZM98.9973 153.36C96.5373 153.36 94.3173 152.835 92.3373 151.785C90.3873 150.735 88.8423 149.235 87.7023 147.285C86.5923 145.335 86.0373 143.055 86.0373 140.445C86.0373 137.865 86.6073 135.6 87.7473 133.65C88.8873 131.67 90.4473 130.155 92.4273 129.105C94.4073 128.055 96.6273 127.53 99.0873 127.53C101.547 127.53 103.767 128.055 105.747 129.105C107.727 130.155 109.287 131.67 110.427 133.65C111.567 135.6 112.137 137.865 112.137 140.445C112.137 143.025 111.552 145.305 110.382 147.285C109.242 149.235 107.667 150.735 105.657 151.785C103.677 152.835 101.457 153.36 98.9973 153.36ZM98.9973 146.7C100.467 146.7 101.712 146.16 102.732 145.08C103.782 144 104.307 142.455 104.307 140.445C104.307 138.435 103.797 136.89 102.777 135.81C101.787 134.73 100.557 134.19 99.0873 134.19C97.5873 134.19 96.3423 134.73 95.3523 135.81C94.3623 136.86 93.8673 138.405 93.8673 140.445C93.8673 142.455 94.3473 144 95.3073 145.08C96.2973 146.16 97.5273 146.7 98.9973 146.7ZM114.69 140.4C114.69 137.82 115.17 135.555 116.13 133.605C117.12 131.655 118.455 130.155 120.135 129.105C121.815 128.055 123.69 127.53 125.76 127.53C127.41 127.53 128.91 127.875 130.26 128.565C131.64 129.255 132.72 130.185 133.5 131.355V119.7H141.195V153H133.5V149.4C132.78 150.6 131.745 151.56 130.395 152.28C129.075 153 127.53 153.36 125.76 153.36C123.69 153.36 121.815 152.835 120.135 151.785C118.455 150.705 117.12 149.19 116.13 147.24C115.17 145.26 114.69 142.98 114.69 140.4ZM133.5 140.445C133.5 138.525 132.96 137.01 131.88 135.9C130.83 134.79 129.54 134.235 128.01 134.235C126.48 134.235 125.175 134.79 124.095 135.9C123.045 136.98 122.52 138.48 122.52 140.4C122.52 142.32 123.045 143.85 124.095 144.99C125.175 146.1 126.48 146.655 128.01 146.655C129.54 146.655 130.83 146.1 131.88 144.99C132.96 143.88 133.5 142.365 133.5 140.445ZM170.432 140.04C170.432 140.76 170.387 141.51 170.297 142.29H152.882C153.002 143.85 153.497 145.05 154.367 145.89C155.267 146.7 156.362 147.105 157.652 147.105C159.572 147.105 160.907 146.295 161.657 144.675H169.847C169.427 146.325 168.662 147.81 167.552 149.13C166.472 150.45 165.107 151.485 163.457 152.235C161.807 152.985 159.962 153.36 157.922 153.36C155.462 153.36 153.272 152.835 151.352 151.785C149.432 150.735 147.932 149.235 146.852 147.285C145.772 145.335 145.232 143.055 145.232 140.445C145.232 137.835 145.757 135.555 146.807 133.605C147.887 131.655 149.387 130.155 151.307 129.105C153.227 128.055 155.432 127.53 157.922 127.53C160.352 127.53 162.512 128.04 164.402 129.06C166.292 130.08 167.762 131.535 168.812 133.425C169.892 135.315 170.432 137.52 170.432 140.04ZM162.557 138.015C162.557 136.695 162.107 135.645 161.207 134.865C160.307 134.085 159.182 133.695 157.832 133.695C156.542 133.695 155.447 134.07 154.547 134.82C153.677 135.57 153.137 136.635 152.927 138.015H162.557Z" fill="#151A1B"/>
</g>
<path d="M209.773 104.091V109.727C204.712 109.727 201.182 110.788 199.182 112.909C197.152 115.03 196.136 118.576 196.136 123.545V138.091C196.136 142.273 195.742 145.894 194.955 148.955C194.136 152.015 192.818 154.545 191 156.545C189.182 158.545 186.758 160.03 183.727 161C180.697 161.97 176.955 162.455 172.5 162.455V153.545C176.015 153.545 178.788 153 180.818 151.909C182.818 150.818 184.242 149.121 185.091 146.818C185.909 144.545 186.318 141.636 186.318 138.091V119.909C186.318 117.545 186.636 115.394 187.273 113.455C187.879 111.515 189.015 109.848 190.682 108.455C192.348 107.061 194.727 105.985 197.818 105.227C200.879 104.47 204.864 104.091 209.773 104.091ZM172.5 46.0909C176.955 46.0909 180.697 46.5758 183.727 47.5455C186.758 48.5152 189.182 50 191 52C192.818 54 194.136 56.5303 194.955 59.5909C195.742 62.6515 196.136 66.2727 196.136 70.4545V85C196.136 89.9697 197.152 93.5152 199.182 95.6364C201.182 97.7576 204.712 98.8182 209.773 98.8182V104.455C204.864 104.455 200.879 104.076 197.818 103.318C194.727 102.561 192.348 101.485 190.682 100.091C189.015 98.697 187.879 97.0303 187.273 95.0909C186.636 93.1515 186.318 91 186.318 88.6364V70.4545C186.318 66.9091 185.909 64 185.091 61.7273C184.242 59.4545 182.818 57.7727 180.818 56.6818C178.788 55.5606 176.015 55 172.5 55V46.0909ZM209.773 98.8182V109.727H199.045V98.8182H209.773Z" fill="#15979F"/>
<defs>
<filter id="filter0_d_1_8" x="45.468" y="58.072" width="95.764" height="58.928" filterUnits="userSpaceOnUse" color-interpolation-filters="sRGB">
<feFlood flood-opacity="0" result="BackgroundImageFix"/>
<feColorMatrix in="SourceAlpha" type="matrix" values="0 0 0 0 0 0 0 0 0 0 0 0 0 0 0 0 0 0 127 0" result="hardAlpha"/>
<feOffset dx="-2" dy="4"/>
<feGaussianBlur stdDeviation="3.5"/>
<feComposite in2="hardAlpha" operator="out"/>
<feColorMatrix type="matrix" values="0 0 0 0 0.747708 0 0 0 0 0.925 0 0 0 0 0.861175 0 0 0 0.25 0"/>
<feBlend mode="normal" in2="BackgroundImageFix" result="effect1_dropShadow_1_8"/>
<feBlend mode="normal" in="SourceGraphic" in2="effect1_dropShadow_1_8" result="shape"/>
</filter>
<filter id="filter1_d_1_8" x="42.985" y="114.7" width="132.447" height="47.66" filterUnits="userSpaceOnUse" color-interpolation-filters="sRGB">
<feFlood flood-opacity="0" result="BackgroundImageFix"/>
<feColorMatrix in="SourceAlpha" type="matrix" values="0 0 0 0 0 0 0 0 0 0 0 0 0 0 0 0 0 0 127 0" result="hardAlpha"/>
<feOffset dx="-2" dy="2"/>
<feGaussianBlur stdDeviation="3.5"/>
<feComposite in2="hardAlpha" operator="out"/>
<feColorMatrix type="matrix" values="0 0 0 0 0.539583 0 0 0 0 0.925 0 0 0 0 0.78625 0 0 0 0.25 0"/>
<feBlend mode="normal" in2="BackgroundImageFix" result="effect1_dropShadow_1_8"/>
<feBlend mode="normal" in="SourceGraphic" in2="effect1_dropShadow_1_8" result="shape"/>
</filter>
</defs>
</svg>
